<?xml version="1.0" standalone="no"?>
<!DOCTYPE svg PUBLIC "-//W3C//DTD SVG 20010904//EN"
 "http://www.w3.org/TR/2001/REC-SVG-20010904/DTD/svg10.dtd">
<svg version="1.0" xmlns="http://www.w3.org/2000/svg"
 width="256.000000pt" height="256.000000pt" viewBox="0 0 256.000000 256.000000"
 preserveAspectRatio="xMidYMid meet">
<metadata>
Created by potrace 1.14, written by Peter Selinger 2001-2017
</metadata>
<g transform="translate(0.000000,256.000000) scale(0.100000,-0.100000)"
fill="#000000" stroke="none">
<path d="M655 2470 c-3 -6 -11 -8 -16 -4 -5 3 -41 -26 -80 -65 -58 -58 -69
-74 -65 -95 3 -16 0 -26 -7 -26 -7 0 -4 -5 6 -11 9 -6 14 -15 11 -21 -5 -7 -1
-7 12 0 16 9 26 4 62 -35 32 -33 41 -50 36 -65 -5 -16 -3 -19 7 -12 12 6 12 5
1 -8 -10 -13 -10 -17 0 -21 11 -4 10 -6 0 -6 -7 -1 -10 -6 -6 -13 4 -6 3 -8
-4 -4 -6 3 -9 15 -7 26 2 11 0 22 -4 24 -4 3 -7 -9 -7 -27 1 -20 7 -35 18 -39
12 -5 15 -15 12 -35 -6 -33 -31 -50 -80 -55 -6 -1 -10 -22 -9 -52 2 -45 -1
-55 -29 -82 -17 -17 -53 -55 -81 -85 -27 -29 -53 -53 -58 -51 -4 1 -6 -1 -6
-5 1 -5 0 -11 -1 -15 -1 -5 -3 -27 -4 -50 0 -24 -5 -43 -11 -43 -46 -3 -76
-43 -49 -66 8 -6 11 -15 9 -20 -3 -4 3 -12 12 -18 10 -6 15 -11 10 -11 -4 0
-1 -13 8 -30 17 -33 19 -45 8 -45 -15 -1 -55 -27 -49 -32 3 -3 12 0 21 7 8 7
15 9 15 5 0 -4 7 -1 17 6 9 8 17 12 19 9 1 -3 6 -1 11 4 4 5 3 6 -4 2 -8 -4
-11 0 -8 14 2 11 0 18 -6 15 -5 -4 -9 -1 -9 5 0 7 5 10 11 8 6 -2 10 -7 9 -12
-1 -5 2 -12 7 -15 16 -12 36 -42 27 -40 -5 1 -11 0 -14 -1 -3 -1 -21 -3 -40
-4 -20 -1 -34 -6 -33 -13 1 -6 -4 -14 -13 -17 -8 -3 -12 -1 -9 4 3 5 -1 7 -9
4 -12 -5 -13 -9 -3 -19 7 -7 16 -11 20 -8 5 3 4 -4 -2 -16 -7 -11 -8 -21 -3
-21 4 0 8 -9 8 -20 0 -11 -4 -20 -9 -20 -4 0 -6 -4 -2 -9 3 -5 1 -12 -3 -15
-5 -3 -8 17 -6 44 1 28 -1 52 -5 54 -4 3 -7 -24 -6 -59 0 -40 4 -60 9 -54 17
16 29 10 15 -8 -12 -15 -12 -16 5 -10 15 6 17 5 7 -6 -9 -11 -8 -17 4 -27 8
-7 15 -10 15 -6 0 4 12 -1 27 -10 21 -12 23 -12 10 -1 -14 11 -15 16 -5 21 7
3 1 3 -14 1 -30 -4 -47 9 -23 19 8 3 15 1 15 -5 0 -6 7 -6 20 1 11 6 20 9 21
8 1 -2 2 -34 3 -71 2 -63 0 -70 -23 -87 -25 -17 -32 -20 -48 -20 -4 0 -2 -5 5
-12 7 -7 8 -17 1 -30 -7 -13 -6 -18 3 -18 10 0 10 -2 0 -9 -17 -10 -17 -21 -2
-31 9 -5 8 -9 -2 -12 -10 -4 -13 7 -13 51 0 60 10 86 27 75 7 -5 8 -2 3 6 -6
9 -4 11 5 5 9 -5 11 -4 6 3 -5 8 -1 10 11 6 15 -5 16 -4 3 5 -11 8 -12 11 -2
11 7 0 10 5 7 10 -4 6 -2 16 4 23 6 8 6 18 1 27 -6 8 -10 11 -11 5 -3 -41 -13
-64 -38 -87 -27 -25 -29 -32 -27 -97 2 -56 6 -76 23 -95 29 -33 41 -58 38 -78
-2 -10 1 -18 6 -18 5 0 7 15 5 33 -3 17 -3 26 0 19 3 -6 9 -10 13 -8 3 2 6
-13 6 -34 0 -21 -3 -36 -7 -34 -5 3 -8 1 -8 -5 0 -5 4 -12 9 -15 10 -7 9 -25
-2 -42 -3 -6 -3 -14 0 -18 25 -24 -12 -82 -47 -74 -7 2 -15 -3 -17 -9 -3 -7 0
-13 7 -13 6 0 8 5 4 12 -5 7 -3 8 6 3 10 -6 9 -11 -5 -22 -11 -7 -22 -13 -27
-13 -9 0 -5 -36 4 -46 4 -3 4 -12 2 -19 -3 -7 2 -15 11 -19 11 -4 14 -2 8 7
-4 6 -8 19 -8 27 0 8 -4 20 -8 27 -8 12 10 29 20 19 4 -3 1 -6 -7 -6 -10 0
-10 -3 0 -15 7 -8 10 -21 7 -30 -4 -8 -2 -17 4 -21 6 -3 8 -13 5 -21 -5 -11
-2 -13 11 -9 9 4 19 2 23 -4 9 -14 73 -20 81 -7 4 6 14 5 25 -1 14 -8 23 -7
36 5 12 10 18 12 19 5 3 -26 4 -31 10 -37 4 -3 6 5 5 17 0 13 -5 26 -10 29 -5
4 -5 13 0 20 12 20 14 38 4 44 -5 3 -7 -3 -6 -12 4 -26 -16 -55 -27 -40 -6 8
-7 6 -3 -6 4 -12 2 -16 -6 -11 -7 5 -8 3 -3 -6 5 -9 4 -11 -3 -6 -14 8 -3 35
23 56 13 11 13 15 3 21 -10 7 -11 9 0 9 10 0 10 5 2 20 -9 16 -8 20 5 20 20 0
19 17 -2 29 -10 6 -14 11 -9 11 5 0 3 7 -4 15 -7 8 -20 15 -29 15 -11 -1 -8
-5 9 -15 14 -8 21 -15 15 -15 -5 0 -1 -7 9 -15 11 -8 16 -15 10 -15 -15 1 -44
26 -37 33 5 6 -10 11 -28 9 -3 -1 -6 5 -6 13 0 8 4 12 8 9 4 -2 6 8 4 23 -2
16 -4 28 -5 28 -1 0 -3 8 -5 18 -3 14 0 16 10 7 10 -8 15 -8 21 1 4 7 3 9 -3
6 -6 -4 -15 4 -21 18 -8 18 -8 26 3 35 11 10 13 7 9 -14 -2 -14 -1 -26 3 -26
5 0 8 22 9 50 0 27 -3 50 -7 50 -4 0 -6 -9 -4 -20 2 -11 0 -20 -5 -20 -13 0
-20 29 -9 36 6 4 5 12 -3 22 -7 9 -8 13 -3 10 6 -4 17 -3 25 2 8 5 22 5 32 -1
13 -7 18 -6 18 2 0 9 3 9 14 0 10 -8 16 -9 21 -1 4 6 13 7 23 1 9 -4 24 -6 32
-4 9 3 11 1 5 -4 -12 -9 -13 -23 -2 -40 6 -9 3 -11 -8 -7 -9 4 -14 13 -11 20
6 16 7 16 -56 18 -27 1 -48 -2 -48 -6 0 -5 20 -7 45 -4 33 3 45 0 46 -10 3
-28 4 -32 13 -41 5 -5 6 -2 1 6 -5 10 -4 12 4 7 6 -4 9 -12 6 -17 -4 -5 0 -9
7 -9 10 0 10 -2 1 -8 -12 -8 -14 -52 -3 -52 4 0 7 -6 7 -14 0 -8 -6 -12 -13
-9 -7 2 -11 12 -9 22 2 10 0 23 -5 30 -4 7 -7 -9 -6 -36 1 -35 6 -50 18 -55
12 -5 15 -15 12 -34 -3 -15 -7 -31 -10 -35 -2 -4 2 -10 8 -12 10 -4 10 -6 0
-6 -7 -1 -11 -5 -7 -10 3 -5 0 -13 -6 -17 -8 -4 -9 -3 -5 4 4 7 1 12 -6 12 -8
0 -9 3 -3 8 6 4 11 14 12 22 1 8 4 24 6 36 4 13 0 21 -9 21 -10 0 -11 -4 -3
-14 6 -7 7 -13 2 -13 -5 0 -10 -10 -11 -22 -2 -13 -4 -32 -6 -43 -2 -11 -4
-24 -5 -28 0 -5 -5 -6 -11 -2 -5 3 -6 13 -3 23 3 9 2 14 -2 9 -12 -11 -12 -77
0 -77 5 0 4 -4 -4 -9 -9 -6 -10 -10 -2 -16 9 -5 9 -10 0 -21 -9 -11 -8 -14 2
-14 12 0 12 -2 0 -9 -9 -6 -10 -11 -2 -15 6 -4 9 -11 6 -16 -3 -5 4 -11 15
-15 11 -3 20 -11 20 -16 0 -6 6 -7 13 -3 6 4 9 4 5 -1 -4 -4 -3 -14 2 -20 7
-9 3 -11 -18 -10 -15 1 -36 -2 -47 -7 -18 -8 -19 -8 -3 5 10 8 15 16 12 19 -3
4 0 9 7 14 8 5 10 3 4 -6 -6 -9 -4 -11 4 -6 13 9 6 21 -12 21 -7 0 -11 8 -11
18 1 9 -3 14 -9 10 -6 -3 -7 -1 -3 5 4 7 2 12 -3 12 -15 0 -14 -12 3 -35 14
-19 11 -49 -4 -40 -9 6 -6 -48 4 -64 4 -6 12 -8 18 -5 6 4 8 -1 5 -12 -4 -11
1 -30 9 -44 13 -22 14 -22 9 -3 -3 12 -1 25 6 29 8 4 9 3 5 -4 -4 -7 -3 -12 3
-12 6 0 7 -7 4 -17 -5 -12 -3 -14 8 -9 8 4 5 0 -5 -8 -11 -9 -14 -16 -7 -16 7
0 10 -4 7 -9 -3 -5 1 -12 10 -15 8 -3 13 -10 10 -15 -7 -11 32 -47 41 -38 3 4
7 17 9 30 1 12 3 23 4 25 2 1 3 5 5 10 1 4 7 18 13 32 l11 25 -2 -27 c-1 -15
-5 -25 -9 -22 -4 2 -5 -5 -3 -16 2 -11 0 -18 -5 -15 -6 3 -7 -1 -4 -10 7 -17
14 -15 18 7 1 7 5 19 9 26 5 6 5 12 1 12 -4 0 1 7 12 15 19 15 19 15 -1 31
-20 16 -20 16 3 11 28 -7 53 29 27 39 -9 4 -12 11 -7 18 16 22 7 41 -20 41
-37 1 -42 9 -18 30 11 10 20 13 20 7 0 -6 -6 -12 -12 -15 -7 -3 -4 -5 8 -4 15
1 20 6 17 18 -5 18 29 44 41 32 3 -3 6 -1 6 6 0 8 -6 11 -17 7 -10 -4 -14 -4
-10 0 4 4 1 14 -6 22 -9 13 -9 14 1 8 6 -4 12 -3 12 3 0 5 -5 13 -10 16 -7 4
-7 12 0 24 5 10 7 21 4 24 -3 2 6 14 20 25 14 10 22 23 18 27 -4 5 -2 5 4 2 6
-4 20 5 30 18 10 14 23 25 28 25 5 0 0 -10 -12 -23 -12 -13 -19 -27 -15 -31 5
-4 3 -7 -2 -5 -18 4 -45 -13 -38 -24 4 -6 1 -7 -7 -2 -9 6 -11 4 -5 -5 5 -8 4
-11 -1 -7 -6 3 -11 -3 -11 -14 -1 -10 3 -19 9 -19 6 0 8 3 5 6 -8 9 31 59 46
59 7 0 12 5 12 10 0 17 38 54 49 48 6 -3 8 -3 4 1 -7 8 41 63 52 59 4 -1 8 3
9 10 5 31 6 349 1 352 -3 2 -5 -70 -5 -160 0 -130 -2 -161 -12 -153 -7 6 -10
15 -6 21 10 16 10 58 1 63 -5 3 -5 10 -1 17 10 16 10 58 1 63 -5 3 -5 10 -1
17 10 16 10 58 1 63 -5 3 -5 11 -1 17 11 19 11 47 -1 47 -7 0 -8 3 -1 8 12 8
13 27 3 38 -4 4 -3 13 3 21 9 10 8 13 -2 13 -12 0 -12 2 -1 9 8 4 14 12 14 16
0 4 -6 12 -14 16 -8 5 -8 9 -2 9 7 0 10 15 7 41 l-5 41 36 -5 c20 -3 36 -2 36
2 0 4 9 7 20 7 11 0 20 -4 20 -8 0 -5 10 -4 21 3 15 8 19 8 15 0 -4 -6 -2 -11
3 -11 6 0 11 6 11 13 0 7 3 8 8 2 8 -11 62 -16 62 -6 0 4 9 7 20 7 11 0 20 -4
20 -8 0 -5 10 -4 21 3 15 8 19 8 15 0 -4 -6 -3 -11 3 -11 5 0 12 6 14 13 4 9
6 9 6 -1 1 -7 5 -11 10 -7 5 3 13 0 17 -6 5 -8 3 -9 -7 -4 -8 5 -11 4 -6 0 10
-11 86 -15 92 -6 2 4 -11 7 -30 6 -19 -1 -36 3 -39 10 -2 6 2 12 10 12 8 0 14
-3 14 -7 0 -3 9 -6 20 -7 11 -1 19 1 16 5 -2 4 7 7 20 7 13 0 24 -3 24 -7 0
-8 21 -5 38 6 9 5 15 1 19 -13 7 -28 23 -27 18 0 -3 12 -1 18 3 15 4 -4 7 -27
8 -50 0 -23 4 -48 8 -54 4 -7 3 -12 -3 -12 -10 0 -10 -18 2 -37 4 -6 3 -14 -2
-18 -10 -5 -7 -42 4 -53 2 -3 1 -10 -5 -17 -6 -7 -4 -20 4 -37 8 -15 12 -29 8
-32 -3 -3 1 -6 10 -6 17 0 61 -44 52 -52 -10 -10 6 -48 20 -48 7 0 19 -11 26
-25 7 -13 17 -22 22 -19 4 3 8 -2 8 -10 0 -8 9 -17 20 -21 11 -3 19 -12 17
-18 -1 -7 9 -12 25 -11 15 0 25 -4 22 -8 -3 -4 -1 -8 5 -8 6 0 8 -9 3 -23 -9
-27 -9 -48 1 -64 5 -7 5 -13 0 -13 -4 0 -8 -56 -7 -124 1 -102 -2 -123 -13
-119 -10 4 -11 9 -2 19 19 23 2 16 -24 -10 -20 -20 -22 -26 -10 -30 9 -4 11
-2 7 6 -5 7 -3 8 6 3 9 -6 11 -4 5 5 -6 9 -4 11 4 6 9 -6 8 -13 -5 -27 -9 -10
-22 -19 -28 -19 -6 0 -4 5 4 11 10 7 11 9 2 7 -8 -2 -13 -7 -12 -12 1 -5 -4
-13 -12 -18 -9 -6 -5 -7 12 -3 19 5 22 4 10 -4 -13 -10 -13 -12 0 -21 13 -9
13 -10 0 -10 -12 0 -13 -2 -1 -9 10 -7 11 -9 1 -13 -8 -2 -14 -12 -16 -21 -1
-9 2 -15 6 -12 5 3 16 -7 24 -22 8 -15 15 -23 16 -17 0 6 -9 23 -21 38 -15 19
-16 24 -5 20 8 -3 18 -14 21 -25 4 -10 9 -18 13 -18 4 1 10 0 15 -1 4 -1 12
-4 17 -5 6 -1 11 -3 13 -4 1 -2 12 -4 25 -7 16 -3 21 0 16 8 -4 7 -3 8 5 4 21
-13 1 -25 -36 -21 -19 2 -39 9 -44 17 -5 8 -9 8 -9 2 0 -33 64 -43 107 -16 12
7 26 14 30 15 4 1 6 7 5 12 -8 24 -6 30 12 30 11 0 20 8 22 18 4 30 11 30 34
-3 15 -21 28 -29 38 -25 9 3 13 3 10 -1 -4 -3 0 -13 9 -22 14 -14 14 -17 -1
-28 -15 -11 -15 -12 1 -18 15 -6 15 -9 3 -17 -12 -9 -12 -10 3 -5 9 3 17 1 17
-3 0 -11 24 -9 28 2 6 19 1 31 -8 17 -8 -13 -11 -13 -27 3 -11 10 -13 17 -5
17 7 0 12 -5 12 -11 0 -8 4 -8 13 0 10 7 17 7 24 0 8 -8 13 -7 18 2 5 7 4 10
-2 6 -6 -4 -14 0 -17 9 -4 10 -2 13 6 8 8 -5 9 -2 5 9 -3 10 -2 17 3 17 5 0 7
8 4 18 -5 14 -4 14 4 3 9 -12 13 -12 26 -2 9 7 14 17 11 21 -3 5 -1 11 5 15 6
4 8 11 5 16 -4 5 -2 9 4 9 16 0 33 38 21 45 -6 4 -10 3 -9 -2 1 -4 1 -15 0
-23 -1 -13 -2 -13 -11 0 -8 13 -10 12 -11 -5 -1 -11 -1 -24 0 -28 1 -5 -3 -6
-8 -2 -6 3 -8 -3 -6 -14 3 -14 -1 -18 -12 -14 -10 4 -11 8 -3 13 6 4 11 10 11
14 -1 12 12 41 27 59 16 18 16 18 -28 22 -44 4 -44 4 -29 21 10 13 10 17 -2
25 -8 5 -9 9 -3 9 14 0 14 30 0 30 -8 0 -8 3 -1 8 14 9 13 65 0 74 -6 5 -6 8
1 8 12 0 12 28 1 47 -4 6 -4 14 1 17 9 5 9 47 -1 63 -4 7 -4 14 1 17 9 5 9 47
-1 63 -4 7 -4 14 1 17 9 5 9 53 -1 62 -3 3 -3 12 -1 19 6 14 54 -28 54 -47 0
-6 3 -9 6 -5 8 8 57 -50 50 -61 -2 -4 -1 -14 4 -22 8 -13 11 -13 22 -1 11 11
11 13 -1 6 -10 -6 -12 -4 -6 5 6 9 4 11 -5 5 -9 -6 -11 -4 -6 4 11 18 47 -16
39 -37 -5 -11 -3 -13 6 -7 10 6 11 3 2 -14 -7 -11 -8 -21 -3 -21 5 0 9 -6 9
-14 0 -8 -6 -12 -13 -9 -7 2 -11 15 -8 28 2 13 0 26 -5 29 -11 7 -8 -71 4 -81
4 -5 5 -2 0 6 -5 10 -4 12 4 7 6 -4 9 -12 6 -17 -4 -5 0 -9 7 -9 10 0 10 -2 1
-8 -12 -8 -14 -52 -3 -52 4 0 7 -6 7 -14 0 -8 -6 -12 -13 -9 -7 2 -11 12 -9
22 2 10 0 24 -5 31 -4 7 -7 -5 -6 -28 1 -23 6 -45 11 -49 4 -5 5 -2 0 6 -5 10
-4 12 4 7 6 -4 9 -11 6 -16 -3 -4 1 -11 7 -13 10 -4 10 -6 1 -6 -7 -1 -13 -6
-13 -12 0 -5 5 -7 11 -3 8 4 8 0 0 -15 -13 -24 -23 -29 -15 -7 3 8 1 17 -5 21
-7 4 -10 -2 -7 -17 2 -13 9 -22 18 -20 8 1 15 -4 15 -12 0 -10 -7 -12 -26 -7
-29 8 -61 4 -61 -8 0 -5 16 -7 35 -5 19 1 35 -1 35 -6 0 -5 -13 -7 -28 -5 -20
3 -29 -1 -29 -11 0 -8 5 -14 10 -14 6 0 6 -5 0 -12 -10 -12 -10 -45 0 -54 2
-3 7 2 11 11 3 9 2 14 -2 11 -5 -3 -9 1 -9 8 0 8 6 12 14 9 8 -3 11 -13 7 -25
-4 -15 -3 -19 7 -14 8 4 7 1 -2 -6 -14 -11 -14 -15 -3 -26 19 -17 29 -15 14 3
-7 9 -8 15 -2 15 17 0 23 -30 7 -36 -12 -5 -12 -8 0 -20 18 -19 31 -18 15 1
-9 10 -9 15 -1 15 10 0 15 -14 12 -33 -1 -4 6 -10 14 -13 8 -4 15 -11 15 -17
0 -5 -8 -3 -18 6 -10 10 -23 17 -28 17 -5 0 -2 -5 6 -10 8 -5 15 -15 15 -22 0
-14 20 -16 48 -3 10 4 16 13 13 20 -2 7 5 20 16 30 19 16 20 18 4 27 -9 5 -13
14 -9 21 4 7 8 15 8 20 0 4 3 7 8 7 4 0 10 0 14 0 3 0 -1 -8 -10 -18 -15 -16
-15 -19 -2 -19 8 0 13 2 10 5 -2 3 5 19 17 36 14 19 16 26 6 18 -11 -9 -18
-10 -23 -2 -3 5 -1 10 5 10 6 0 8 4 5 10 -3 5 0 7 8 4 8 -3 19 1 23 8 13 21
15 48 3 48 -5 0 -8 4 -4 9 3 5 0 13 -6 17 -8 4 -9 3 -5 -4 9 -14 -6 -16 -20
-2 -6 6 -15 6 -24 0 -8 -5 -10 -10 -5 -11 24 -2 47 -8 53 -14 11 -10 11 -35 0
-29 -7 5 -8 2 -3 -6 5 -9 4 -11 -4 -6 -9 6 -9 11 -1 21 12 15 -2 23 -36 20
-18 -1 -21 3 -20 27 1 16 -2 32 -6 34 -5 3 -5 11 -1 17 10 15 10 38 0 54 -4 6
-3 14 3 18 6 4 7 12 3 18 -14 22 -10 44 7 40 14 -4 16 7 15 80 -1 80 -2 86
-34 125 -20 24 -39 38 -48 35 -10 -4 -5 -11 17 -24 18 -12 28 -24 24 -31 -5
-7 -3 -8 6 -3 9 6 11 4 5 -5 -5 -9 -4 -11 4 -6 6 4 11 4 10 -1 -1 -4 0 -10 1
-13 7 -14 4 -148 -2 -143 -5 2 -6 9 -3 14 4 5 0 9 -7 9 -8 0 -9 3 -3 8 12 8
13 32 2 49 -4 6 -3 14 2 17 18 12 -2 48 -57 101 -55 53 -76 90 -45 78 11 -4
11 -8 3 -13 -8 -5 -9 -10 -2 -14 6 -3 12 -3 15 1 2 5 2 2 0 -5 -1 -8 2 -10 9
-6 7 5 8 3 3 -6 -5 -9 -4 -11 3 -6 7 4 12 9 12 12 0 3 -35 39 -78 80 -42 41
-76 81 -74 89 2 8 -1 15 -6 15 -4 0 -8 -11 -8 -24 0 -14 4 -22 10 -19 5 4 6 1
1 -7 -6 -9 -4 -11 5 -5 9 5 11 4 6 -4 -6 -9 -11 -9 -22 0 -7 6 -12 15 -9 19 3
5 1 11 -4 14 -11 7 -9 25 3 45 5 8 3 16 -5 22 -8 5 -9 9 -3 9 6 0 11 7 11 15
0 8 -5 15 -11 15 -8 0 -8 3 -1 8 14 9 13 65 0 74 -6 5 -6 8 1 8 11 0 12 28 2
46 -8 13 8 41 18 31 4 -4 23 7 41 25 27 26 30 34 20 46 -10 13 -9 14 8 4 20
-10 21 -8 20 43 0 33 -6 60 -14 67 -11 10 -12 10 -7 1 4 -7 2 -13 -5 -13 -6 0
-9 8 -6 20 3 10 -1 24 -9 31 -8 6 -14 8 -14 4 0 -4 -6 -2 -13 4 -14 11 -27 5
-27 -12 0 -5 7 -7 15 -3 9 3 19 -3 26 -17 11 -20 11 -21 -4 -8 -9 7 -23 11
-31 8 -8 -3 -20 2 -28 11 -11 13 -11 14 1 7 11 -6 13 -4 9 7 -4 8 2 29 12 46
10 16 16 33 13 36 -3 3 2 8 11 12 9 3 14 9 11 14 -2 4 1 15 8 24 12 16 13 16
14 -4 1 -12 -2 -18 -9 -14 -6 4 -8 2 -4 -4 3 -6 -2 -15 -11 -21 -10 -6 -14
-11 -9 -11 5 0 3 -7 -4 -15 -7 -8 -9 -15 -4 -15 5 0 2 -5 -6 -11 -13 -9 -13
-10 0 -6 8 2 15 9 15 16 0 6 7 16 15 21 8 5 11 10 6 10 -5 0 -1 9 8 19 10 11
15 24 12 30 -4 5 2 14 11 20 11 6 13 11 5 11 -7 0 -10 5 -6 12 4 7 3 8 -5 4
-6 -4 -8 -13 -5 -19 4 -7 3 -8 -2 -4 -5 5 -9 16 -9 25 0 9 -5 17 -12 17 -6 0
-15 3 -19 8 -4 4 -12 7 -18 7 -6 0 -4 -5 4 -10 12 -8 11 -10 -5 -10 -14 0 -21
6 -21 20 0 11 3 20 6 20 3 0 6 9 7 20 1 11 -1 18 -5 16 -4 -2 -7 16 -7 40 0
25 4 43 10 41 13 -5 13 -38 0 -56 -8 -12 -7 -13 4 -6 9 5 12 4 7 -3 -3 -6 -3
-13 2 -15 4 -3 7 16 7 43 0 26 -3 46 -7 43 -5 -2 -8 0 -8 6 0 5 6 12 13 15 6
3 2 3 -10 0 -25 -6 -28 2 -13 26 5 8 5 19 0 25 -14 17 -5 50 14 47 9 -2 16 4
16 11 0 8 7 17 15 21 8 3 14 11 13 18 -2 7 4 12 13 10 11 -1 16 6 16 28 0 16
-4 30 -8 30 -4 0 -6 -11 -5 -24 2 -17 -1 -23 -11 -19 -10 4 -11 9 -3 18 8 10
8 15 0 20 -8 5 -8 11 -1 19 7 9 7 17 -2 26 -8 9 -8 11 0 6 6 -3 13 -3 16 1 2
5 2 1 0 -7 -3 -11 -1 -12 8 -3 9 9 8 17 -5 34 -9 13 -16 20 -16 16 0 -4 -6 -2
-14 5 -8 7 -12 16 -10 20 2 3 -4 5 -13 4 -10 -2 -34 15 -55 38 -21 23 -38 37
-38 32 0 -5 -8 -2 -17 5 -16 13 -17 12 -4 -3 7 -10 18 -15 24 -11 5 3 7 2 4
-4 -4 -6 5 -15 19 -22 14 -6 23 -15 20 -20 -6 -9 22 -26 37 -22 5 1 6 -3 2 -9
-4 -6 -3 -9 2 -8 4 2 19 -5 33 -15 13 -9 19 -17 13 -17 -6 0 -19 7 -27 16 -9
8 -16 12 -16 8 0 -3 -6 -1 -13 5 -8 6 -17 9 -20 6 -4 -3 -5 -2 -3 1 4 6 -30
44 -39 44 -3 0 -17 12 -30 28 -26 29 -34 58 -12 46 6 -4 4 1 -5 12 -11 13 -15
32 -13 56 2 21 0 40 -4 42 -5 3 -7 -6 -5 -19 1 -14 -2 -28 -7 -31 -6 -3 -4
-16 6 -30 18 -28 9 -31 -24 -7 -23 15 -23 17 -6 30 24 17 28 43 9 64 -12 13
-12 19 -3 25 8 5 10 3 4 -6 -6 -9 -4 -11 5 -5 9 5 11 4 6 -3 -5 -8 -1 -10 10
-5 14 5 13 8 -7 24 -13 10 -28 19 -34 19 -5 0 -3 -5 5 -10 8 -5 10 -10 3 -10
-6 0 -22 13 -36 29 -14 17 -26 29 -28 28 -2 -1 -3 0 -2 2 2 2 -2 10 -7 17 -6
6 -9 17 -8 24 3 14 -48 25 -56 12 -3 -5 4 -8 16 -8 12 1 23 -6 25 -14 3 -9 1
-11 -4 -5 -7 10 -25 12 -38 5 -3 -1 -8 -3 -12 -4 -10 -2 -107 -99 -109 -108
-1 -5 -3 -11 -4 -15 -1 -5 -2 -12 -1 -16 1 -4 -5 -7 -13 -5 -8 2 -15 -1 -15
-7 -1 -5 5 -10 12 -10 20 -1 35 -14 33 -29 -1 -8 -24 -35 -51 -62 -28 -26 -50
-51 -50 -55 0 -11 -15 -24 -28 -24 -7 -1 -11 -7 -9 -14 1 -7 -2 -10 -8 -6 -13
8 -12 19 -13 -172 -1 -89 -6 -165 -10 -169 -4 -5 -5 -1 -2 8 4 9 3 18 -2 21
-4 3 -8 -7 -8 -23 -1 -18 4 -26 11 -23 8 3 11 -3 10 -14 -2 -10 1 -21 6 -24 5
-3 2 -12 -7 -19 -13 -11 -16 -11 -13 0 2 7 -4 15 -12 17 -9 3 -11 1 -5 -4 15
-12 13 -78 -2 -79 -7 -1 -16 -3 -20 -4 -5 -1 -11 -2 -15 -1 -5 0 -7 -5 -5 -12
1 -6 -3 -11 -10 -10 -17 3 -10 -23 13 -48 10 -11 18 -22 16 -23 -2 0 -1 -13 3
-28 4 -16 11 -25 17 -22 5 3 4 11 -2 19 -7 8 -8 20 -4 26 5 8 3 9 -6 4 -9 -6
-11 -4 -5 5 4 7 2 16 -6 21 -9 6 -10 9 -2 9 14 0 23 -12 28 -42 3 -13 9 -24
15 -26 6 -2 8 -7 5 -12 -3 -5 2 -15 10 -23 11 -12 12 -17 2 -20 -7 -3 -4 -6 6
-6 10 -1 16 -5 13 -10 -4 -5 -3 -11 1 -14 5 -2 3 -2 -4 -1 -6 2 -14 -2 -17 -9
-3 -8 -5 -8 -5 2 -1 11 -4 11 -18 0 -14 -12 -15 -12 -9 0 7 10 4 12 -12 7 -11
-4 -23 -2 -27 3 -3 6 0 8 8 5 8 -3 17 -2 20 3 6 9 -98 11 -107 2 -3 -3 10 -5
29 -4 19 1 36 -3 39 -10 2 -6 -2 -12 -10 -12 -8 0 -14 3 -14 7 0 3 -9 6 -20 7
-11 1 -19 -1 -16 -5 2 -4 -7 -7 -20 -7 -13 0 -24 2 -24 5 0 3 -18 5 -40 5 -22
0 -40 -2 -40 -5 0 -3 -9 -6 -20 -6 -11 0 -20 4 -20 8 0 5 -10 4 -21 -3 -15 -8
-19 -8 -15 0 4 6 2 11 -3 11 -6 0 -11 -6 -11 -12 0 -8 -3 -9 -8 -3 -8 11 -62
16 -62 6 0 -4 -9 -7 -20 -7 -11 0 -20 4 -20 8 0 5 -10 4 -21 -3 -15 -8 -19 -8
-15 0 4 6 2 11 -3 11 -6 0 -11 -6 -11 -12 0 -9 -3 -9 -8 -3 -4 6 -17 10 -28 9
-26 -1 -26 17 1 46 10 11 15 20 10 20 -4 0 -2 7 5 15 7 8 9 15 5 15 -3 0 3 12
14 26 11 15 18 31 14 38 -3 6 -2 7 3 3 12 -12 12 -30 -1 -40 -6 -5 -4 -7 5 -4
9 2 14 14 13 31 -2 25 0 26 14 14 14 -11 16 -11 8 2 -6 8 -10 19 -10 24 0 12
-33 17 -40 6 -3 -5 4 -7 16 -5 12 2 19 1 15 -3 -4 -3 -22 -7 -41 -7 -25 -1
-32 2 -27 13 4 11 1 13 -7 7 -10 -6 -11 -3 -2 13 7 14 8 23 1 27 -6 4 -7 11
-3 18 10 16 10 58 1 63 -5 3 -5 10 -1 17 10 16 10 58 1 63 -5 3 -5 10 -1 17
10 16 10 58 1 63 -5 3 -5 11 -1 17 11 18 10 67 -1 67 -6 0 -4 5 4 10 13 9 13
10 0 10 -12 0 -12 2 -2 9 17 11 17 21 0 32 -8 6 -9 9 -1 9 17 0 5 58 -17 80
-10 10 -21 15 -25 12 -4 -4 -5 -2 -3 5 1 6 -18 31 -43 56 -33 31 -44 48 -38
59 5 10 4 15 -6 15 -8 0 -12 -4 -9 -9 3 -4 0 -8 -5 -8 -14 0 -14 5 2 38 19 39
16 47 -26 91 -26 27 -34 42 -26 47 8 5 9 3 4 -6 -6 -9 -4 -11 4 -5 9 5 4 17
-20 41 -18 19 -35 32 -37 29 -3 -3 -11 0 -18 6 -8 7 -14 7 -19 -1z m35 -15 c3
0 16 -10 30 -22 19 -19 21 -23 7 -23 -9 0 -17 4 -17 10 0 8 -39 23 -63 25 -5
0 -37 -28 -72 -63 -52 -52 -62 -68 -60 -93 1 -16 0 -27 -3 -24 -13 13 -9 61 6
73 9 6 12 12 7 12 -5 0 11 20 35 45 24 24 47 42 51 40 4 -3 10 2 13 11 3 8 10
13 15 9 5 -3 12 -1 16 5 4 6 12 7 18 3 7 -4 14 -8 17 -8z m56 -311 c-3 -16 9
-34 45 -68 56 -52 71 -59 37 -17 -13 15 -27 26 -32 23 -5 -3 -6 0 -2 6 5 9 13
9 27 2 11 -6 17 -15 14 -19 -3 -5 2 -11 10 -15 11 -4 14 -17 11 -46 -3 -28 -1
-38 7 -33 7 4 6 -1 -2 -10 -11 -14 -11 -17 0 -17 12 0 12 -2 1 -9 -8 -4 -14
-12 -14 -16 0 -4 6 -12 14 -16 10 -7 10 -9 1 -9 -7 0 -13 -5 -13 -11 0 -5 6
-7 13 -3 7 5 7 1 -2 -10 -9 -10 -11 -20 -5 -24 11 -8 15 -42 4 -42 -11 0 -7
-54 5 -62 6 -5 5 -8 -2 -8 -7 0 -13 -5 -13 -11 0 -5 6 -7 13 -3 7 5 7 1 -2
-10 -9 -10 -11 -20 -5 -24 11 -8 15 -42 4 -42 -4 0 -7 -12 -6 -27 1 -22 -3
-28 -21 -28 -12 0 -24 -3 -28 -7 -4 -3 -20 -2 -37 3 -17 4 -35 6 -40 2 -6 -3
-7 3 -3 16 3 11 2 21 -3 21 -5 0 -9 -10 -8 -22 1 -21 12 -25 74 -30 12 -1 22
-6 22 -11 0 -5 -8 -6 -17 -3 -15 5 -15 4 1 -9 13 -10 15 -15 6 -15 -9 0 -7 -5
6 -15 10 -8 15 -15 9 -15 -7 0 -7 -3 0 -8 6 -4 18 -21 28 -39 l18 -32 -28 -14
c-15 -7 -44 -13 -63 -12 -29 0 -35 4 -32 20 4 29 7 39 15 52 4 6 2 15 -4 19
-8 5 -9 3 -4 -6 5 -8 4 -11 -3 -6 -7 4 -10 -1 -7 -14 3 -13 0 -18 -7 -14 -7 4
-8 2 -4 -5 4 -6 2 -18 -4 -26 -10 -12 -10 -15 1 -15 11 0 11 -2 1 -8 -7 -5 14
-8 48 -8 33 1 60 4 60 8 0 5 5 8 11 8 5 0 8 -4 4 -9 -3 -5 -1 -12 4 -16 6 -3
8 3 6 15 -5 26 7 26 23 -1 8 -12 9 -18 3 -15 -5 4 -12 2 -16 -4 -4 -6 -11 -8
-16 -5 -13 8 -99 13 -99 5 0 -3 -9 -6 -20 -6 -11 0 -20 4 -20 9 0 4 -4 6 -9 2
-5 -3 -13 0 -17 6 -5 8 -3 9 6 4 10 -6 12 -4 7 8 -3 10 -2 17 4 17 6 0 7 5 3
12 -5 7 -3 8 6 3 10 -6 12 -4 7 8 -3 9 -2 19 4 22 5 4 7 10 4 14 -2 5 4 16 15
26 11 10 17 22 14 26 -3 5 0 9 7 9 9 0 9 3 0 14 -7 8 -23 13 -36 12 -17 -2
-22 1 -17 12 4 11 1 13 -7 7 -10 -6 -11 -3 -2 13 7 14 8 23 1 27 -6 4 -7 12
-3 18 4 7 8 19 8 27 0 8 6 14 13 12 8 -1 11 2 7 8 -3 6 -10 8 -15 5 -5 -3 -11
-1 -14 4 -4 5 -2 12 4 16 6 4 7 12 3 18 -12 19 -10 45 2 40 7 -2 11 -17 10
-34 -1 -16 1 -29 5 -29 13 0 5 57 -10 76 -14 16 -13 16 7 6 29 -16 33 -15 32
6 0 10 -3 12 -6 4 -2 -6 -9 -10 -13 -7 -5 3 2 17 16 30 20 20 23 28 14 45 -6
11 -7 20 -1 20 11 0 9 33 -2 41 -5 3 -1 9 8 12 9 4 13 3 10 -2 -3 -5 -2 -12 3
-15 4 -2 8 9 7 25 0 27 -1 28 -14 12 -12 -16 -13 -16 -7 8 6 27 -11 51 -39 55
-11 2 -12 -2 -2 -17 7 -11 14 -14 18 -8 4 7 9 5 12 -5 9 -24 -5 -25 -38 -5
-16 11 -25 19 -18 19 12 0 12 18 -1 38 -7 11 -4 12 11 3 17 -9 20 -7 19 14 -1
13 -5 27 -9 31 -3 4 -4 -3 -2 -15 2 -12 0 -19 -5 -16 -5 3 -7 14 -5 25 2 11 0
20 -4 20 -4 0 -8 6 -8 14 0 8 6 12 14 9 7 -3 10 -9 7 -14 -3 -5 0 -9 5 -9 16
0 13 27 -3 33 -12 5 -14 20 -7 45 1 1 10 -3 21 -10 12 -8 18 -20 16 -34z m991
-18 c0 -38 -4 -46 -26 -57 -14 -7 -33 -13 -41 -14 -11 0 -15 -12 -16 -43 -1
-23 2 -42 6 -42 4 0 6 18 4 40 -3 33 -1 38 12 33 9 -3 12 -9 7 -12 -10 -7 -11
-61 -1 -76 3 -6 0 -19 -8 -30 -14 -19 -15 -19 -10 8 3 15 1 25 -3 22 -16 -10
2 -75 21 -75 6 0 6 6 -1 14 -9 11 -9 16 0 22 8 5 9 3 5 -5 -5 -8 0 -14 13 -18
12 -3 21 -10 21 -15 0 -5 -4 -7 -9 -3 -16 10 -21 -12 -6 -25 8 -7 12 -17 8
-24 -3 -6 0 -5 8 2 11 10 11 14 1 21 -10 6 -9 11 4 22 16 12 17 12 12 -2 -4
-9 -1 -22 5 -28 6 -6 7 -11 2 -11 -6 0 -9 -55 -9 -134 l1 -133 -28 2 c-16 1
-30 -3 -33 -11 -3 -8 -2 -14 2 -14 7 0 23 -35 31 -65 1 -5 9 -17 17 -26 8 -9
11 -19 7 -22 -3 -4 -2 -7 4 -7 15 0 23 -39 11 -47 -7 -3 -8 -1 -4 5 4 7 3 12
-3 12 -5 0 -13 -5 -16 -10 -4 -6 -11 -7 -17 -3 -17 10 -78 11 -78 1 0 -5 -8
-4 -18 1 -12 6 -23 6 -28 1 -6 -6 -15 -5 -24 0 -11 7 -11 10 -2 10 7 0 11 4 7
9 -3 5 -1 12 5 16 6 4 8 10 6 14 -3 4 4 18 15 30 11 12 18 25 15 30 -8 13 33
51 49 45 8 -3 13 -11 12 -16 -1 -6 5 -13 13 -15 12 -4 12 -3 2 5 -8 5 -13 13
-11 18 1 5 -9 15 -22 21 -14 8 -18 13 -9 13 11 0 12 2 3 8 -7 5 -26 7 -42 6
-28 -2 -36 14 -18 32 12 12 8 26 -5 18 -9 -5 -9 -2 1 9 11 14 11 17 0 17 -9 1
-4 9 11 21 20 17 21 20 6 17 -10 -1 -21 3 -23 10 -3 6 1 12 7 12 9 0 9 5 -1
17 -10 11 -10 14 -1 9 15 -9 15 -1 2 24 -7 13 -7 21 0 25 8 5 7 12 -2 23 -11
12 -11 16 0 20 10 3 10 7 0 20 -10 12 -10 14 0 8 14 -8 16 3 2 24 -5 9 -5 19
1 26 7 8 6 14 -1 19 -16 10 -12 21 13 34 12 6 14 9 5 7 -10 -3 -20 0 -24 6 -4
6 -3 9 2 6 5 -3 16 1 24 10 13 14 12 15 -2 10 -18 -7 -33 17 -17 27 5 4 7 10
4 15 -3 4 2 11 11 14 8 3 12 11 8 17 -4 7 -3 9 3 6 6 -4 18 5 27 18 9 14 21
23 26 20 6 -4 10 1 10 9 0 9 5 16 10 16 7 0 7 -7 0 -20 -6 -11 -16 -17 -22
-14 -7 5 -8 2 -3 -6 5 -9 4 -11 -3 -6 -8 5 -10 2 -6 -9 5 -12 11 -9 30 16 18
25 21 36 12 46 -9 11 -7 12 7 6 14 -5 17 -3 12 9 -7 21 3 31 18 18 7 -6 12
-30 12 -54z m135 24 c14 -16 29 -26 33 -22 5 4 5 1 1 -6 -4 -7 -1 -15 8 -18 9
-3 16 -10 16 -14 0 -12 -39 -19 -46 -8 -4 6 -10 5 -15 -3 -7 -12 -9 -12 -9 0
0 10 -3 11 -13 3 -8 -7 -18 -7 -27 -2 -13 9 -13 10 0 11 8 1 18 1 23 0 4 0 7
4 7 9 0 6 -8 10 -18 10 -20 0 -26 30 -8 42 7 5 6 8 -4 8 -13 0 -13 1 0 10 21
14 23 13 52 -20z m-1085 -42 c2 -19 1 -19 -16 -4 -10 9 -18 22 -18 30 0 22 33
-3 34 -26z m-226 -147 c-9 -6 -10 -10 -2 -16 9 -5 9 -10 0 -21 -9 -11 -8 -14
2 -14 9 0 10 -3 4 -8 -6 -4 -10 -17 -9 -29 1 -16 -25 -48 -90 -112 -85 -83
-107 -111 -88 -111 5 0 9 -6 9 -14 0 -8 -6 -12 -12 -10 -20 8 -11 55 14 75 13
11 19 19 15 19 -5 0 26 35 67 78 72 72 76 80 74 117 -2 45 1 55 18 55 8 0 8
-3 -2 -9z m1310 -79 c0 11 2 11 6 0 4 -10 8 -10 19 -1 11 9 14 9 14 -1 0 -9 4
-9 17 1 13 11 15 11 9 1 -10 -16 24 -13 37 3 4 6 5 -2 3 -17 -3 -15 0 -30 5
-34 6 -3 6 -11 2 -17 -10 -14 -9 -159 1 -175 4 -7 3 -12 -3 -12 -10 0 -10 -18
2 -36 10 -17 -14 -32 -47 -28 -15 1 -26 0 -22 -3 3 -3 -2 -12 -12 -20 -15 -13
-15 -13 8 -7 23 5 23 5 7 -7 -17 -13 -17 -15 0 -39 18 -26 21 -32 25 -65 3
-16 -3 -20 -32 -21 -19 0 -45 5 -57 13 -13 7 -24 11 -24 8 -5 -20 -4 -31 3
-41 6 -8 0 -10 -18 -6 -14 2 -22 7 -17 11 5 3 16 21 24 39 8 17 18 32 22 32 5
0 6 -4 2 -9 -3 -5 0 -13 7 -17 7 -4 10 -3 5 1 -4 5 0 16 8 25 9 10 18 30 21
46 5 27 4 28 -9 9 -8 -10 -13 -26 -10 -35 4 -12 3 -13 -5 -1 -12 16 -5 41 16
57 19 14 2 27 -37 29 -24 1 -26 4 -27 53 -1 48 1 52 20 47 17 -5 16 -3 -4 9
-14 9 -19 15 -12 16 8 0 10 5 5 13 -12 19 -14 47 -4 47 6 0 8 -9 6 -19 -3 -15
0 -18 13 -14 10 4 12 8 4 11 -7 2 -9 9 -5 15 9 14 12 99 4 91 -4 -3 -6 -19 -6
-35 0 -43 -19 -40 -20 3 -1 20 2 35 7 32 4 -3 8 0 8 5 0 6 -6 11 -12 11 -9 0
-8 4 2 10 8 5 11 10 7 10 -5 0 -5 5 -2 10 4 7 13 7 26 0 14 -8 19 -7 20 2z
m-1250 -105 c-7 -7 -7 -15 -1 -22 7 -9 2 -11 -20 -10 -16 1 -35 -2 -42 -6 -10
-7 -10 -9 1 -9 8 0 4 -8 -10 -20 -13 -10 -20 -19 -16 -20 4 0 17 9 29 20 28
25 38 25 33 0 -2 -11 0 -18 5 -15 5 3 7 14 5 25 -2 12 0 18 6 15 5 -4 7 -11 4
-16 -4 -5 0 -9 7 -9 10 0 10 -2 1 -8 -12 -7 -14 -52 -3 -52 3 0 6 -9 6 -20 0
-12 -5 -19 -13 -16 -12 5 -26 -9 -29 -30 -1 -6 4 -11 11 -11 8 0 12 9 9 20 -2
11 0 17 3 13 4 -4 8 -15 10 -26 2 -16 -2 -18 -32 -16 -39 4 -42 0 -20 -24 9
-10 17 -26 19 -37 2 -10 18 -45 35 -77 18 -32 27 -55 21 -51 -16 10 -50 15
-50 7 0 -4 -9 -8 -20 -8 -11 0 -20 4 -20 8 0 5 -10 4 -21 -3 -15 -8 -19 -8
-15 0 4 6 2 11 -3 11 -6 0 -11 -6 -11 -12 0 -9 -3 -9 -8 -3 -4 6 -17 10 -28 9
-24 -1 -26 15 -5 40 7 9 10 16 6 16 -5 0 -1 8 8 18 10 10 14 23 10 27 -5 5 0
3 10 -4 9 -8 21 -11 25 -7 4 4 -2 14 -13 23 -20 15 -20 15 0 12 11 -2 26 0 33
4 8 5 12 3 12 -7 0 -9 5 -16 11 -16 5 0 8 -4 5 -9 -3 -5 1 -12 10 -15 9 -4 14
-9 11 -13 -4 -3 -2 -14 4 -24 6 -13 6 -19 -1 -19 -5 0 -10 -4 -10 -8 0 -5 6
-9 14 -9 13 0 13 6 2 52 -1 6 -8 21 -16 35 -8 14 -13 30 -12 36 3 13 -31 15
-39 2 -3 -5 -9 -3 -12 6 -6 14 4 21 25 17 4 0 5 6 1 15 -4 11 -8 12 -13 4 -5
-8 -10 -9 -14 -2 -3 6 -17 9 -30 8 -22 -3 -24 0 -21 30 2 24 -1 32 -8 27 -7
-4 -6 1 2 10 7 9 10 17 5 17 -11 0 38 45 51 45 5 1 9 6 8 13 -2 7 2 11 9 10 7
-2 12 3 13 10 0 8 11 20 25 27 14 8 21 15 15 15 -5 0 -1 7 9 15 21 16 44 9 27
-8z m876 -167 c-1 -29 -6 -40 -17 -39 -32 3 -51 -1 -45 -10 3 -5 1 -12 -4 -15
-22 -14 -18 13 4 34 14 13 25 20 25 16 0 -5 6 -3 14 3 8 7 13 21 11 32 -2 10
0 19 5 19 5 0 9 -18 7 -40z m-1119 -25 c0 -24 -3 -25 -34 -20 l-34 5 17 -33
c9 -17 18 -38 19 -46 2 -8 8 -17 14 -21 8 -5 7 -9 -5 -13 -9 -4 -13 -3 -10 3
3 6 1 10 -5 10 -6 0 -9 4 -5 9 3 6 -3 14 -12 20 -12 7 -13 10 -4 11 8 0 5 6
-8 18 -19 15 -20 19 -9 35 12 16 30 23 62 26 4 1 5 8 2 17 -3 8 -2 13 3 10 5
-3 9 -17 9 -31z m482 -10 c-8 -14 -39 -13 -33 1 2 7 12 11 21 10 9 -2 15 -7
12 -11z m1254 0 c-3 -6 -19 -12 -35 -12 -29 0 -30 1 -9 12 12 6 28 12 35 12 7
0 11 -6 9 -12z m-167 -87 c9 -18 16 -39 14 -47 -1 -8 2 -10 10 -5 8 4 10 3 5
-4 -4 -7 -3 -12 2 -12 14 0 22 -39 10 -47 -7 -3 -8 -1 -4 5 4 7 2 12 -5 12 -7
0 -9 3 -6 7 4 3 0 14 -9 24 -8 9 -16 24 -18 32 -1 8 -8 22 -15 31 -7 9 -10 16
-5 16 5 0 2 5 -6 10 -10 6 -11 10 -3 10 7 0 20 -15 30 -32z m-75 -92 c9 1 19
-4 21 -10 3 -7 -1 -13 -9 -13 -8 0 -14 4 -14 9 0 4 -3 7 -7 7 -20 -3 -30 2
-30 17 0 14 2 15 11 2 6 -8 19 -14 28 -12z m94 -3 c-3 -20 -42 -25 -57 -7 -8
10 -5 12 15 8 14 -2 26 0 26 6 0 5 4 10 9 10 5 0 8 -8 7 -17z m190 -87 c0 -25
-4 -43 -7 -40 -4 2 -6 12 -5 22 2 9 -2 20 -7 24 -7 4 -6 12 2 22 8 9 14 16 15
16 1 0 2 -20 2 -44z m-1653 -132 c15 -1 27 2 27 5 0 9 48 7 57 -2 3 -4 13 -1
21 6 13 9 14 9 8 0 -4 -7 -3 -13 1 -13 5 0 9 -9 9 -20 0 -12 -6 -19 -15 -17
-15 2 -25 -49 -11 -58 4 -3 6 9 5 26 -1 16 -1 28 2 25 3 -2 5 -8 5 -13 0 -4 4
-17 8 -28 9 -23 -13 -64 -25 -46 -3 6 0 11 7 11 10 0 10 2 0 9 -8 4 -34 7 -58
6 -25 -1 -47 2 -50 7 -3 4 -11 8 -17 8 -7 0 -6 -4 3 -10 13 -9 13 -10 0 -10
-12 0 -12 -2 -1 -9 7 -5 9 -11 5 -14 -5 -3 -15 1 -22 9 -7 8 -8 14 -2 14 12 0
9 22 -5 32 -6 5 -6 8 1 8 7 0 10 18 8 47 -1 25 1 42 4 37 4 -5 19 -9 35 -10z
m282 -6 c-6 -21 -6 -21 6 -6 8 10 23 16 34 14 11 -2 24 2 28 8 5 6 7 0 5 -14
-1 -14 2 -31 6 -39 6 -9 5 -12 -2 -7 -7 4 -10 -1 -9 -14 1 -11 4 -20 7 -20 3
0 5 -11 5 -24 0 -13 -3 -22 -7 -20 -4 3 -6 -5 -5 -16 1 -11 4 -20 7 -20 4 0 7
-6 7 -14 0 -8 -6 -12 -12 -10 -7 3 -11 20 -10 39 1 19 -2 32 -6 30 -9 -6 -5
-82 6 -92 4 -5 5 -2 0 6 -5 10 -4 12 4 7 6 -4 9 -12 6 -17 -4 -5 0 -9 7 -10
10 0 10 -2 1 -6 -7 -2 -13 -9 -13 -14 0 -6 6 -7 13 -3 7 5 7 1 -2 -10 -9 -10
-11 -20 -5 -24 11 -8 15 -42 4 -42 -11 0 -7 -54 5 -62 6 -5 5 -8 -2 -8 -7 0
-13 -5 -13 -11 0 -5 6 -7 13 -3 7 5 7 1 -2 -10 -9 -10 -11 -20 -5 -24 12 -9
14 -42 3 -42 -5 0 -9 -6 -9 -13 0 -7 -9 -19 -19 -27 -11 -7 -18 -17 -15 -22 3
-4 -7 -13 -21 -18 -14 -5 -24 -14 -21 -19 7 -11 -18 -33 -27 -24 -4 3 -7 1 -7
-5 0 -7 -7 -12 -16 -12 -8 0 -13 -4 -9 -9 3 -5 1 -12 -4 -15 -5 -4 -12 -2 -15
3 -4 5 -2 12 3 16 10 6 11 45 1 45 -4 0 -7 6 -7 14 0 7 7 11 17 9 13 -3 17 3
17 26 0 17 -4 31 -8 31 -4 0 -6 -11 -5 -25 2 -13 -1 -22 -6 -19 -5 3 -7 12 -4
20 3 7 1 16 -5 19 -5 4 -6 12 -2 18 4 7 8 19 8 27 0 8 6 14 13 12 8 -1 11 2 7
8 -3 6 -10 8 -15 5 -5 -3 -11 -1 -14 4 -4 5 -2 12 4 16 6 4 7 12 3 18 -12 19
-10 45 2 40 7 -2 11 -17 10 -34 -1 -16 1 -29 5 -29 4 0 6 21 6 48 -1 35 3 50
16 60 10 7 16 17 13 22 -3 5 -1 12 5 15 8 5 7 11 -1 21 -6 8 -7 14 -2 14 5 0
9 10 7 23 -1 12 -3 22 -4 22 -1 0 -3 9 -5 19 -2 11 -10 23 -17 27 -7 4 -22 15
-33 23 l-20 16 20 -7 c18 -6 18 -5 6 10 -7 9 -10 17 -5 17 5 0 2 5 -6 10 -8 5
-10 10 -4 10 7 0 9 15 7 40 -3 25 0 40 7 40 6 0 8 -5 4 -12 -6 -9 -3 -9 9 0 9
8 21 11 26 8 5 -4 12 -2 16 4 12 19 26 10 20 -12z m886 6 c2 2 18 6 35 9 27 4
31 2 30 -17 -1 -11 3 -27 8 -35 8 -11 8 -13 -1 -7 -8 4 -13 2 -13 -8 0 -8 5
-18 10 -21 6 -4 7 -12 3 -18 -10 -13 -10 -258 0 -273 3 -6 2 -16 -3 -23 -6
-10 -9 -8 -15 8 -3 12 -11 19 -16 15 -5 -3 -8 0 -7 8 2 7 -3 12 -10 10 -10 -2
-10 2 -2 17 11 22 -3 40 -16 20 -5 -8 -3 -9 6 -4 9 6 11 4 5 -5 -6 -10 -11
-10 -20 3 -7 9 -16 13 -21 9 -5 -4 -6 -3 -2 1 8 11 -24 45 -37 39 -5 -3 -6 -1
-2 3 4 5 -3 15 -15 22 -13 7 -17 12 -10 13 7 0 10 5 6 12 -5 7 -3 8 6 3 8 -5
11 -4 6 3 -3 5 0 13 6 16 7 3 3 3 -9 0 -25 -6 -28 2 -13 26 6 9 5 20 -3 29 -7
8 -7 12 -2 9 6 -3 16 1 24 9 12 13 11 14 -8 8 -22 -7 -26 1 -11 25 6 9 5 20
-3 29 -9 12 -9 13 1 7 6 -4 12 -2 12 3 0 6 -4 11 -9 11 -5 0 -8 8 -6 18 2 9 4
20 4 25 1 4 12 5 26 3 14 -3 25 0 25 5 0 6 7 6 19 0 10 -6 20 -9 22 -7z m219
6 c0 -3 9 -6 20 -7 13 -1 18 2 14 9 -5 7 -2 8 7 2 8 -4 25 -7 39 -6 14 2 21
-1 15 -5 -14 -11 -15 -84 -1 -76 6 4 5 -1 -3 -10 -11 -14 -11 -17 0 -17 12 0
12 -2 1 -9 -8 -4 -14 -12 -14 -16 0 -4 6 -12 14 -16 10 -7 10 -9 1 -9 -7 0
-13 -5 -13 -11 0 -5 6 -7 13 -3 7 5 7 1 -2 -10 -9 -10 -11 -20 -5 -24 11 -8
15 -42 5 -42 -9 0 -7 -63 2 -78 4 -6 3 -13 -3 -17 -5 -3 -10 -11 -10 -16 0 -6
6 -7 13 -3 8 5 8 2 -2 -9 -11 -14 -11 -17 0 -18 10 0 11 -2 2 -6 -7 -2 -13 -9
-13 -14 0 -6 6 -7 13 -3 7 5 7 1 -2 -10 -9 -10 -11 -20 -5 -24 11 -8 15 -42 4
-42 -11 0 -7 -54 5 -62 6 -5 5 -8 -2 -8 -7 0 -13 -5 -13 -11 0 -5 6 -7 13 -3
7 5 7 1 -2 -10 -9 -10 -11 -20 -5 -24 10 -8 15 -42 5 -42 -3 0 -6 -18 -7 -39
0 -25 4 -37 10 -33 6 3 5 -2 -3 -11 -11 -14 -11 -17 0 -17 12 0 12 -2 1 -9
-17 -11 -17 -21 0 -32 10 -7 10 -9 1 -9 -7 0 -13 -5 -13 -11 0 -5 6 -7 13 -3
7 5 7 1 -2 -10 -9 -10 -11 -20 -5 -24 5 -4 10 -14 12 -22 1 -8 -7 -4 -18 10
-12 15 -18 18 -14 8 5 -15 1 -17 -25 -14 -21 2 -34 -2 -40 -13 -8 -14 -12 -13
-29 7 -11 13 -19 31 -17 40 1 9 -3 20 -9 24 -7 5 -6 8 4 8 9 1 5 6 -10 15 -14
8 -19 14 -12 15 8 0 10 5 5 12 -12 20 -14 48 -4 48 6 0 8 -9 6 -19 -3 -15 0
-18 13 -14 10 4 12 8 4 11 -7 2 -9 9 -5 15 9 14 11 387 3 387 -3 0 -5 -81 -5
-180 0 -111 -4 -181 -10 -182 -12 -4 -15 161 -3 168 5 3 5 11 1 17 -4 7 -8 54
-8 105 -1 88 0 92 19 87 17 -5 16 -3 -4 9 -14 9 -19 15 -12 16 8 0 10 5 5 13
-12 19 -14 47 -4 47 6 0 8 -9 6 -19 -3 -15 0 -18 13 -14 10 4 12 8 4 11 -7 2
-9 9 -5 15 9 14 11 187 3 187 -4 0 -6 -36 -6 -80 1 -45 -3 -81 -9 -82 -6 -2
-10 34 -10 90 -1 52 3 92 9 92 5 0 6 3 3 7 -12 11 10 28 37 28 14 0 26 -2 26
-5z m-1308 -139 c-4 -10 -7 -11 -10 -3 -2 8 -9 9 -22 2 -13 -7 -21 -7 -26 1
-5 8 -9 8 -14 -1 -5 -9 -9 -8 -12 2 -4 10 6 14 42 14 39 0 47 -3 42 -15z
m-248 -182 c-3 -5 2 -9 11 -9 9 0 13 -5 10 -11 -4 -6 0 -9 10 -7 10 2 20 -3
23 -10 8 -24 -31 -9 -59 23 -27 30 -30 56 -3 34 7 -6 11 -15 8 -20z m1840 -71
c-6 -10 -35 10 -31 20 1 4 -1 7 -4 7 -13 0 -39 28 -39 43 0 11 13 3 40 -23 21
-21 37 -42 34 -47z m-555 -10 c11 -18 24 -31 28 -29 4 2 13 -6 19 -18 6 -12
15 -21 19 -19 4 2 14 -6 21 -18 12 -18 12 -21 0 -21 -8 0 -15 3 -14 6 2 20 -3
31 -12 26 -5 -3 -16 7 -24 22 -8 15 -15 24 -16 20 0 -9 -60 48 -60 57 0 16 20
2 39 -26z m-704 -178 c-21 -22 -41 -38 -43 -36 -5 6 72 85 77 80 3 -3 -13 -22
-34 -44z m913 -222 c2 -35 14 -64 32 -83 19 -17 23 -18 33 -5 13 16 51 24 41
9 -8 -13 10 -11 24 3 9 9 12 9 12 -4 0 -10 -8 -15 -22 -14 -32 3 -41 -4 -27
-20 6 -8 8 -14 5 -14 -4 0 2 -13 13 -29 11 -15 18 -31 14 -35 -3 -3 -1 -6 6
-6 7 0 9 -5 5 -11 -4 -6 -17 2 -34 22 -26 32 -27 33 -38 12 -6 -11 -10 -22 -9
-24 1 -2 0 -3 -2 -1 -11 6 -8 32 2 32 7 0 5 5 -3 10 -10 6 -11 10 -2 10 6 0
12 5 12 11 0 5 -6 7 -12 3 -8 -5 -7 0 2 11 14 17 13 18 -3 12 -13 -5 -20 0
-27 19 -6 14 -14 23 -19 20 -14 -9 -21 20 -8 33 6 6 7 11 1 11 -5 0 -10 9 -11
20 -1 11 2 20 6 20 4 0 8 -6 9 -12z m-1254 -133 c12 -19 14 -30 7 -43 -10 -15
-11 -15 -8 3 1 11 -2 21 -7 22 -12 2 -26 25 -20 35 8 12 10 10 28 -17z m179
-42 c-3 -7 -9 -10 -14 -7 -14 8 -11 21 5 21 8 0 12 -6 9 -14z m-123 -76 c0 -8
9 -22 20 -32 22 -20 17 -43 -6 -25 -7 7 -13 15 -12 18 1 4 -3 17 -10 30 -8 14
-9 22 -2 22 5 0 10 -6 10 -13z m1224 5 c3 -5 -1 -9 -9 -9 -8 0 -15 4 -15 9 0
10 17 10 24 0z m456 -1 c0 -13 -29 -35 -37 -27 -3 3 -1 6 5 6 7 0 12 7 12 15
0 8 5 15 10 15 6 0 10 -4 10 -9z m-20 -45 c0 -2 -7 -9 -15 -16 -13 -11 -14
-10 -9 4 5 14 24 23 24 12z"/>
<path d="M565 2388 l-40 -43 43 40 c39 36 47 45 39 45 -2 0 -21 -19 -42 -42z"/>
<path d="M713 2165 c0 -8 4 -15 9 -15 4 0 8 4 8 9 0 6 -4 12 -8 15 -5 3 -9 -1
-9 -9z"/>
<path d="M834 1935 c0 -24 3 -42 5 -39 8 7 9 74 1 79 -3 2 -6 -16 -6 -40z"/>
<path d="M773 1890 c-1 -11 2 -22 6 -25 5 -2 9 7 9 20 0 30 -13 34 -15 5z"/>
<path d="M834 1814 c-1 -24 2 -44 5 -44 8 0 8 76 1 83 -3 3 -5 -15 -6 -39z"/>
<path d="M775 1840 c3 -5 8 -10 11 -10 2 0 4 5 4 10 0 6 -5 10 -11 10 -5 0 -7
-4 -4 -10z"/>
<path d="M756 1821 c-4 -5 -2 -12 3 -15 5 -4 12 -2 15 3 4 5 2 12 -3 15 -5 4
-12 2 -15 -3z"/>
<path d="M830 1739 c0 -5 5 -7 10 -4 6 3 10 8 10 11 0 2 -4 4 -10 4 -5 0 -10
-5 -10 -11z"/>
<path d="M834 1654 c-1 -24 2 -44 5 -44 8 0 8 76 1 83 -3 3 -5 -15 -6 -39z"/>
<path d="M713 1663 c4 -3 1 -13 -6 -22 -11 -14 -10 -14 6 -2 20 15 22 31 5 31
-6 0 -8 -3 -5 -7z"/>
<path d="M765 1560 c14 -21 13 -33 -4 -46 -14 -11 -13 -11 44 -5 6 1 2 6 -8
12 -9 6 -15 14 -12 18 2 5 -3 15 -12 22 -15 12 -16 12 -8 -1z"/>
<path d="M794 1488 c-5 -7 -3 -8 6 -3 10 6 12 4 7 -9 -4 -10 -1 -19 8 -22 8
-4 13 -9 10 -13 -2 -4 2 -8 9 -8 10 0 8 9 -6 34 -22 37 -24 38 -34 21z"/>
<path d="M1715 2147 c1 -22 -6 -38 -22 -50 -22 -17 -23 -45 -2 -31 5 3 7 10 3
15 -3 6 2 9 12 7 14 -2 18 5 20 40 1 23 -1 44 -5 46 -4 3 -6 -10 -6 -27z"/>
<path d="M1619 2063 c-37 -44 -39 -50 -24 -50 8 0 12 4 9 8 -3 5 5 18 16 29
12 12 20 24 17 26 -2 2 -10 -4 -18 -13z"/>
<path d="M1585 1941 c-6 -11 13 -26 22 -17 4 3 0 6 -8 6 -11 0 -11 2 1 10 9 6
10 10 3 10 -6 0 -14 -4 -18 -9z"/>
<path d="M1585 1900 c-3 -6 1 -7 9 -4 18 7 21 14 7 14 -6 0 -13 -4 -16 -10z"/>
<path d="M1595 1881 c-3 -5 -2 -12 3 -15 5 -3 9 1 9 9 0 17 -3 19 -12 6z"/>
<path d="M1585 1821 c-6 -11 13 -26 22 -17 4 3 0 6 -8 6 -11 0 -11 2 1 10 9 6
10 10 3 10 -6 0 -14 -4 -18 -9z"/>
<path d="M1714 1760 c0 -27 2 -50 5 -50 3 0 6 23 7 50 0 28 -2 50 -5 50 -3 0
-6 -22 -7 -50z"/>
<path d="M1585 1780 c-3 -6 1 -7 9 -4 18 7 21 14 7 14 -6 0 -13 -4 -16 -10z"/>
<path d="M1595 1761 c-3 -5 -2 -12 3 -15 5 -3 9 1 9 9 0 17 -3 19 -12 6z"/>
<path d="M1585 1700 c-3 -6 1 -7 9 -4 18 7 21 14 7 14 -6 0 -13 -4 -16 -10z"/>
<path d="M1713 1665 c0 -19 3 -35 7 -35 3 0 6 16 6 35 0 19 -3 35 -6 35 -4 0
-7 -16 -7 -35z"/>
<path d="M1597 1663 c-2 -5 -3 -17 -1 -28 1 -10 -2 -25 -8 -32 -12 -15 -13
-14 26 -18 16 -1 35 -10 41 -19 11 -14 13 -14 18 -2 4 9 15 13 27 11 11 -2 18
0 15 6 -4 5 -2 9 3 9 5 0 9 7 9 15 0 8 -4 15 -9 15 -4 0 -8 -7 -8 -15 0 -8 -3
-14 -7 -14 -5 1 -10 0 -13 -1 -18 -7 -40 -7 -40 0 0 4 -10 7 -22 6 -20 -1 -23
4 -22 37 0 37 -1 43 -9 30z"/>
<path d="M1627 1512 c-10 -10 -14 -22 -10 -25 3 -4 -3 -17 -15 -30 -11 -12
-21 -25 -21 -29 -1 -5 -1 -9 -2 -10 -7 -24 -5 -37 4 -31 17 10 117 11 124 0 2
-4 11 -3 19 4 16 13 8 34 -9 21 -15 -10 -88 -10 -105 2 -10 6 -10 11 -1 22 6
8 8 14 3 14 -5 0 0 7 11 16 11 8 19 17 18 19 -2 3 -3 6 -2 8 3 11 7 37 5 37
-2 0 -10 -8 -19 -18z m-23 -100 c3 -5 -1 -9 -9 -9 -8 0 -12 4 -9 9 3 4 7 8 9
8 2 0 6 -4 9 -8z"/>
<path d="M1683 1469 c6 -10 16 -19 20 -19 5 0 7 -7 4 -14 -4 -10 -1 -13 9 -9
13 5 12 8 -3 25 -10 11 -16 23 -13 26 3 3 -3 6 -12 8 -14 2 -15 -1 -5 -17z"/>
<path d="M1833 2163 c4 -3 2 -12 -4 -19 -7 -8 -6 -14 2 -19 6 -4 15 -2 19 5 9
15 18 1 14 -23 -1 -11 0 -16 3 -13 4 3 12 1 19 -5 7 -5 14 -6 17 -2 5 8 -58
83 -70 83 -3 0 -3 -3 0 -7z m58 -60 c13 -16 12 -17 -3 -4 -10 7 -18 15 -18 17
0 8 8 3 21 -13z"/>
<path d="M475 1788 l-70 -73 73 70 c39 38 72 71 72 72 0 8 -11 -2 -75 -69z"/>
<path d="M1837 1858 c-7 -4 7 -7 30 -5 24 1 43 5 43 8 0 9 -59 6 -73 -3z"/>
<path d="M1954 1789 c0 -43 3 -79 6 -79 4 0 6 21 5 48 -1 26 2 52 7 59 5 7 5
14 -2 18 -6 3 -8 10 -5 15 3 5 2 11 -2 13 -5 3 -8 -30 -9 -74z"/>
<path d="M1954 1656 c4 -47 -1 -59 -24 -64 -41 -10 -50 -10 -55 -1 -4 5 -11 7
-16 4 -9 -6 -12 3 -12 37 0 9 -5 19 -11 21 -7 3 -11 -11 -12 -38 0 -40 1 -42
28 -40 17 2 32 -3 37 -12 7 -13 9 -13 14 2 5 11 13 14 27 10 11 -4 20 -2 20 4
0 6 5 11 11 11 5 0 7 -5 3 -12 -4 -7 -3 -8 5 -4 7 5 9 12 3 19 -4 7 -8 33 -7
60 0 26 -2 47 -6 47 -4 0 -6 -20 -5 -44z m-110 -62 c3 -8 2 -12 -4 -9 -6 3
-10 10 -10 16 0 14 7 11 14 -7z"/>
<path d="M600 1780 c-9 -6 -10 -10 -3 -10 6 0 15 5 18 10 8 12 4 12 -15 0z"/>
<path d="M504 1682 c4 -3 -4 -12 -16 -19 -15 -8 -18 -12 -8 -13 13 0 13 -1 0
-10 -8 -5 -10 -10 -5 -10 6 0 17 5 25 10 13 8 13 10 1 10 -11 0 -9 4 4 14 11
8 24 12 30 9 5 -4 6 -2 2 2 -4 5 -15 10 -23 11 -9 1 -13 0 -10 -4z"/>
<path d="M594 1655 c0 -14 4 -25 8 -25 4 0 7 9 5 20 -5 29 -13 33 -13 5z"/>
<path d="M479 1618 c-8 -27 -5 -36 12 -33 10 2 19 1 19 -3 0 -4 14 -7 30 -7
20 -1 30 4 30 14 0 11 -3 12 -11 4 -8 -8 -19 -9 -38 -2 -14 6 -28 10 -31 10
-3 -1 -4 4 -2 9 2 8 -6 15 -9 8z"/>
<path d="M480 1450 c-8 -5 -11 -10 -6 -10 5 0 1 -9 -9 -20 -10 -11 -16 -20
-14 -21 26 -5 51 -4 55 3 3 5 2 8 -3 7 -27 -5 -34 2 -19 17 9 8 16 20 16 25 0
11 -1 11 -20 -1z"/>
<path d="M520 1399 c0 -3 11 -6 25 -6 14 0 25 3 25 6 0 4 -11 7 -25 7 -14 0
-25 -3 -25 -7z"/>
<path d="M561 1171 c-7 -5 -26 -7 -42 -6 -16 1 -29 -2 -29 -7 0 -5 -4 -7 -8
-4 -4 2 -8 -11 -8 -30 0 -19 4 -34 8 -34 5 0 6 11 4 25 -5 28 13 42 54 40 14
0 28 4 32 10 5 6 8 6 8 -2 0 -7 7 -13 15 -13 8 0 15 5 15 12 0 6 -3 8 -7 5 -3
-4 -11 -3 -17 3 -7 5 -18 5 -25 1z"/>
<path d="M765 1170 c-4 -6 -11 -8 -16 -5 -5 4 -9 1 -9 -4 0 -17 27 -13 34 4 6
17 0 20 -9 5z"/>
<path d="M803 1158 c-3 -6 -1 -8 4 -5 16 10 29 -14 28 -50 -1 -18 2 -33 5 -33
4 0 6 21 5 47 -1 35 -5 47 -18 49 -9 1 -20 -3 -24 -8z"/>
<path d="M715 1108 c2 -24 4 -44 5 -45 1 -2 3 -8 4 -13 1 -14 28 -30 38 -24 5
3 7 -6 4 -20 -3 -14 -1 -28 4 -31 10 -6 7 -66 -5 -85 -5 -8 -4 -11 3 -6 5 3
12 0 15 -6 2 -7 4 21 3 62 -2 75 -10 105 -26 95 -5 -3 -11 4 -15 15 -3 11 -10
20 -14 20 -5 0 -7 18 -6 40 2 22 0 40 -4 40 -5 0 -7 -19 -6 -42z"/>
<path d="M830 920 c0 -5 5 -10 11 -10 5 0 7 5 4 10 -3 6 -8 10 -11 10 -2 0 -4
-4 -4 -10z"/>
<path d="M834 854 c-1 -24 2 -44 5 -44 8 0 8 76 1 83 -3 3 -5 -15 -6 -39z"/>
<path d="M750 855 c-6 -8 -10 -20 -7 -27 3 -8 6 -6 6 5 1 10 5 16 10 12 5 -3
12 -1 15 4 10 16 -11 22 -24 6z"/>
<path d="M830 779 c0 -5 5 -7 10 -4 6 3 10 8 10 11 0 2 -4 4 -10 4 -5 0 -10
-5 -10 -11z"/>
<path d="M833 725 c0 -8 4 -15 9 -15 4 0 8 4 8 9 0 6 -4 12 -8 15 -5 3 -9 -1
-9 -9z"/>
<path d="M713 703 c4 -3 1 -13 -6 -22 -11 -14 -10 -14 6 -2 20 15 22 31 5 31
-6 0 -8 -3 -5 -7z"/>
<path d="M830 689 c0 -15 -26 -39 -35 -31 -4 4 -5 0 -3 -8 2 -8 -3 -14 -9 -12
-7 1 -12 -1 -10 -6 1 -4 -8 -18 -20 -32 -13 -13 -23 -18 -23 -12 0 7 -4 12 -9
12 -8 0 -8 -8 -2 -39 1 -2 8 3 18 10 9 8 18 13 20 12 1 -2 3 0 4 5 1 15 32 41
42 35 5 -3 7 -1 4 4 -4 6 0 16 9 24 22 18 37 49 24 49 -5 0 -10 -5 -10 -11z"/>
<path d="M1706 1173 c-4 -4 -31 -7 -61 -8 -30 0 -55 -4 -55 -8 0 -4 0 -11 0
-17 0 -5 5 -10 10 -10 6 0 9 5 8 12 -4 17 93 18 99 1 8 -19 19 -16 20 7 2 21
-10 34 -21 23z"/>
<path d="M1595 1110 c-3 -5 -4 -10 0 -10 3 0 1 -9 -5 -20 -8 -15 -8 -18 3 -14
7 2 13 16 13 29 0 27 -2 30 -11 15z"/>
<path d="M1710 1101 c0 -6 5 -11 11 -11 6 0 7 -5 2 -12 -9 -15 -12 -168 -3
-168 3 0 5 35 5 78 -1 42 2 82 7 88 5 7 2 16 -7 24 -10 9 -15 9 -15 1z"/>
<path d="M1595 1030 c-3 -5 -4 -10 0 -10 3 0 1 -9 -5 -20 -8 -15 -8 -18 3 -14
7 2 13 16 13 29 0 27 -2 30 -11 15z"/>
<path d="M1628 906 c20 -19 39 -32 42 -29 3 3 -1 8 -8 10 -6 3 -9 10 -6 15 4
6 3 8 -3 5 -5 -3 -17 3 -26 14 -9 10 -21 19 -27 19 -5 0 7 -15 28 -34z"/>
<path d="M1714 878 c2 -13 -1 -28 -5 -34 -6 -7 -4 -16 4 -22 10 -9 13 -1 13
34 0 24 -4 44 -8 44 -4 0 -6 -10 -4 -22z"/>
<path d="M1839 1176 c-1 -3 -2 -9 -3 -13 -1 -5 -5 -14 -9 -20 -5 -9 -3 -11 7
-7 18 7 28 31 16 39 -6 4 -11 4 -11 1z"/>
<path d="M1870 1160 c0 -3 15 -6 33 -5 38 1 58 -11 50 -31 -3 -8 -1 -14 4 -14
6 0 9 12 8 27 -1 25 -4 27 -48 28 -26 1 -47 -1 -47 -5z"/>
<path d="M1954 1076 c1 -14 4 -28 7 -31 3 -3 5 6 5 19 -1 14 -4 28 -7 31 -3 3
-5 -6 -5 -19z"/>
<path d="M1950 1019 c0 -5 5 -7 10 -4 6 3 10 8 10 11 0 2 -4 4 -10 4 -5 0 -10
-5 -10 -11z"/>
<path d="M1954 934 c-1 -24 2 -44 5 -44 8 0 8 76 1 83 -3 3 -5 -15 -6 -39z"/>
<path d="M1959 852 c9 -7 10 -11 2 -15 -7 -4 -8 -5 0 -3 15 2 13 20 -3 24 -10
3 -10 2 1 -6z"/>
<path d="M1950 779 c0 -5 5 -7 10 -4 6 3 10 8 10 11 0 2 -4 4 -10 4 -5 0 -10
-5 -10 -11z"/>
<path d="M1954 694 c-1 -24 2 -44 5 -44 8 0 8 76 1 83 -3 3 -5 -15 -6 -39z"/>
<path d="M1950 619 c0 -5 5 -7 10 -4 6 3 10 8 10 11 0 2 -4 4 -10 4 -5 0 -10
-5 -10 -11z"/>
<path d="M1954 534 c-1 -24 2 -44 5 -44 8 0 8 76 1 83 -3 3 -5 -15 -6 -39z"/>
<path d="M1954 436 c1 -14 4 -28 7 -31 3 -3 5 6 5 19 -1 14 -4 28 -7 31 -3 3
-5 -6 -5 -19z"/>
<path d="M1950 379 c0 -5 5 -7 10 -4 6 3 10 8 10 11 0 2 -4 4 -10 4 -5 0 -10
-5 -10 -11z"/>
<path d="M1899 288 c-1 -2 -2 -17 -3 -34 -1 -21 2 -30 10 -27 10 4 12 22 4 43
-1 3 -2 8 -1 13 1 6 -8 11 -10 5z"/>
<path d="M1920 216 c0 -2 8 -10 18 -17 15 -13 16 -12 3 4 -13 16 -21 21 -21
13z"/>
<path d="M1740 2459 c0 -5 -5 -7 -10 -4 -6 4 -9 1 -8 -7 2 -7 -3 -12 -9 -10
-7 1 -12 -1 -10 -5 3 -11 -46 -59 -56 -55 -5 1 -6 -2 -3 -7 4 -5 -3 -13 -15
-16 -11 -4 -18 -9 -15 -12 3 -4 1 -12 -5 -19 -7 -9 -6 -12 8 -10 10 2 17 10
15 20 -2 9 2 16 7 16 5 0 31 22 57 49 27 27 52 47 56 45 4 -3 5 2 2 10 -7 18
-14 21 -14 5z"/>
<path d="M1856 2405 c30 -40 31 -40 31 -20 0 8 -4 12 -9 9 -7 -5 -12 10 -9 29
1 5 -3 6 -9 2 -5 -3 -10 -1 -10 4 0 6 -5 11 -11 11 -5 0 2 -16 17 -35z"/>
<path d="M784 2354 c33 -38 37 -49 25 -75 -5 -11 -3 -16 7 -16 8 0 13 6 10 14
-3 7 0 13 7 13 8 0 8 3 2 8 -6 4 -10 14 -10 22 2 20 -15 41 -27 34 -5 -3 -8 2
-6 11 2 12 -4 19 -18 21 -20 3 -19 0 10 -32z"/>
<path d="M1621 2261 c-11 -7 -11 -9 0 -13 11 -4 11 -8 -2 -21 -9 -9 -20 -13
-24 -9 -4 4 -5 2 -3 -3 4 -14 -53 -71 -67 -67 -5 2 -7 1 -3 -3 8 -8 -23 -46
-32 -40 -4 2 -7 -1 -8 -8 0 -7 -3 -24 -6 -39 -4 -16 -2 -28 3 -28 6 0 8 9 6
20 -4 22 30 71 48 67 7 -1 11 3 10 9 -1 7 21 34 50 61 29 27 52 54 52 60 0 17
-9 23 -24 14z"/>
<path d="M527 2236 c-6 -16 25 -41 37 -29 3 3 7 1 7 -5 1 -7 2 -16 3 -21 2
-15 25 -35 32 -28 7 7 -32 59 -41 55 -4 -2 -12 8 -19 21 -11 19 -14 21 -19 7z"/>
<path d="M821 2224 c-1 -14 67 -79 75 -71 4 4 -1 9 -10 13 -9 3 -13 11 -9 17
3 5 1 7 -4 4 -13 -8 -36 17 -25 28 4 5 2 5 -5 2 -6 -4 -14 -1 -16 5 -3 7 -6 8
-6 2z"/>
<path d="M906 2142 c-2 -4 2 -16 10 -27 12 -16 14 -17 14 -2 0 9 -5 17 -11 17
-5 0 -7 5 -4 10 3 6 4 10 1 10 -3 0 -7 -3 -10 -8z"/>
<path d="M940 2104 c0 -13 18 -39 24 -34 2 3 -2 14 -10 24 -8 11 -14 16 -14
10z"/>
<path d="M601 2043 c8 -9 8 -13 0 -13 -6 0 -20 -9 -31 -20 -20 -20 -20 -20 0
-17 25 4 39 18 44 44 3 12 -1 20 -10 20 -10 0 -11 -4 -3 -14z"/>
<path d="M954 2035 c0 -14 4 -25 8 -25 4 0 7 9 5 20 -5 29 -13 33 -13 5z"/>
<path d="M1473 1995 c0 -14 3 -25 8 -25 4 0 6 10 4 21 -6 32 -12 34 -12 4z"/>
<path d="M2125 2000 c-3 -6 1 -7 9 -4 18 7 21 14 7 14 -6 0 -13 -4 -16 -10z"/>
<path d="M954 1975 c0 -14 4 -25 8 -25 4 0 7 9 5 20 -5 29 -13 33 -13 5z"/>
<path d="M1479 1958 c-6 -23 -7 -48 -1 -48 4 0 8 11 8 25 0 21 -4 33 -7 23z"/>
<path d="M956 1915 c1 -14 -2 -27 -7 -31 -5 -3 -6 -11 -2 -17 11 -17 11 -57 1
-63 -4 -3 -5 -11 -1 -17 11 -17 11 -57 1 -63 -5 -3 -5 -11 0 -17 10 -14 10
-47 -1 -64 -4 -6 -3 -14 3 -18 6 -4 8 -11 5 -16 -4 -5 -2 -16 3 -25 8 -15 10
-15 15 0 4 10 3 15 -1 12 -4 -2 -8 72 -7 165 1 94 -2 172 -6 174 -3 3 -5 -7
-3 -20z"/>
<path d="M2111 1889 c-17 -17 -34 -28 -39 -25 -4 2 -8 -4 -9 -14 -1 -11 2 -22
8 -25 5 -4 5 -14 -1 -25 -8 -15 -7 -18 3 -14 7 2 13 15 13 29 0 13 -4 21 -8
19 -4 -3 -8 -1 -8 4 0 5 11 15 25 22 13 7 22 17 19 22 -3 4 1 8 9 8 8 0 17 7
21 15 8 22 1 19 -33 -16z"/>
<path d="M1470 1889 c0 -5 5 -7 10 -4 6 3 10 8 10 11 0 2 -4 4 -10 4 -5 0 -10
-5 -10 -11z"/>
<path d="M1474 1846 c0 -13 4 -22 8 -20 9 6 6 44 -3 44 -4 0 -6 -11 -5 -24z"/>
<path d="M1470 1800 c0 -5 5 -10 11 -10 5 0 7 5 4 10 -3 6 -8 10 -11 10 -2 0
-4 -4 -4 -10z"/>
<path d="M979 1498 c0 -2 -3 -14 -5 -28 -2 -13 -14 -34 -25 -46 -12 -13 -16
-24 -10 -28 5 -4 13 -1 17 5 4 8 9 7 15 -2 6 -10 8 -6 5 11 -2 14 3 37 10 52
9 17 10 29 4 33 -6 3 -10 5 -11 3z m-9 -72 c0 -2 -8 -10 -17 -17 -16 -13 -17
-12 -4 4 13 16 21 21 21 13z"/>
<path d="M1472 1422 c0 -18 5 -29 13 -29 8 0 11 5 7 11 -3 6 -7 17 -8 24 -4
26 -11 22 -12 -6z"/>
<path d="M996 1399 c4 -7 110 -6 118 1 2 3 -24 5 -59 5 -35 1 -62 -2 -59 -6z"/>
<path d="M1156 1400 c7 -7 174 -7 174 0 0 3 -40 5 -89 5 -50 0 -87 -2 -85 -5z"/>
<path d="M2120 1195 c-18 -19 -37 -32 -41 -29 -4 2 -10 0 -13 -5 -4 -5 -3 -12
2 -15 4 -2 7 -30 7 -60 -1 -31 2 -56 5 -56 4 0 6 26 6 58 -1 31 1 57 4 58 25
4 48 27 43 42 -3 9 -3 14 2 10 9 -9 35 9 35 23 0 17 -16 9 -50 -26z m10 -19
c0 -2 -7 -7 -16 -10 -8 -3 -12 -2 -9 4 6 10 25 14 25 6z"/>
<path d="M1445 1171 c-3 -5 -17 -8 -30 -5 -14 2 -25 1 -25 -4 0 -4 15 -8 33
-8 21 0 34 5 34 13 0 15 -4 16 -12 4z"/>
<path d="M950 1160 c0 -3 31 -6 69 -6 39 0 67 3 65 6 -8 7 -134 7 -134 0z"/>
<path d="M1125 1160 c-2 -3 26 -5 61 -5 35 -1 61 2 58 5 -7 7 -114 7 -119 0z"/>
<path d="M954 1095 c0 -25 3 -45 6 -45 4 0 6 20 6 45 0 25 -2 45 -6 45 -3 0
-6 -20 -6 -45z"/>
<path d="M1475 1010 c0 -70 3 -126 7 -124 4 2 9 -5 13 -16 3 -11 13 -20 21
-20 8 0 13 -4 10 -8 -2 -4 4 -13 14 -20 12 -7 21 -8 25 -2 3 5 -7 18 -23 27
-16 10 -29 22 -30 27 0 5 -6 12 -13 17 -15 9 -20 108 -7 126 5 6 5 14 0 17 -5
3 -8 26 -7 51 2 25 0 47 -4 49 -4 3 -7 -53 -6 -124z"/>
<path d="M946 1031 c-4 -5 -2 -12 4 -16 6 -4 8 -11 5 -16 -4 -5 -1 -9 4 -9 6
0 10 9 8 20 -4 25 -13 34 -21 21z"/>
<path d="M2074 995 c0 -14 4 -25 8 -25 4 0 7 9 5 20 -5 29 -13 33 -13 5z"/>
<path d="M2065 940 c-3 -6 1 -7 9 -4 18 7 21 14 7 14 -6 0 -13 -4 -16 -10z"/>
<path d="M480 830 c-9 -6 -10 -10 -3 -10 6 0 15 5 18 10 8 12 4 12 -15 0z"/>
<path d="M2068 749 c6 -9 8 -20 4 -24 -4 -5 -1 -5 6 -1 6 4 12 2 12 -3 0 -6
-5 -11 -11 -11 -5 0 -8 -4 -4 -9 3 -5 1 -12 -5 -16 -6 -4 -7 -12 -3 -18 11
-17 11 -57 1 -63 -4 -3 -5 -11 -1 -17 11 -17 11 -50 1 -64 -5 -6 -5 -14 -1
-16 5 -3 8 -31 8 -61 -1 -31 1 -56 5 -56 3 0 5 62 5 138 -1 172 1 185 25 169
10 -6 17 -14 14 -18 -2 -4 3 -12 10 -18 8 -7 16 -8 19 -4 3 5 -18 31 -46 58
-29 28 -46 43 -39 34z"/>
<path d="M363 738 c-12 -19 -11 -111 1 -127 9 -12 7 -13 -6 -8 -10 3 -20 2
-22 -2 -9 -14 6 -21 24 -11 17 9 20 35 7 57 -4 6 -3 14 2 17 10 7 9 25 -3 44
-4 7 -2 19 4 27 7 8 10 15 7 15 -3 0 -9 -6 -14 -12z"/>
<path d="M467 669 c7 -7 15 -10 18 -7 3 3 -2 9 -12 12 -14 6 -15 5 -6 -5z"/>
<path d="M470 641 c0 -6 4 -12 8 -15 5 -3 9 1 9 9 0 8 -4 15 -9 15 -4 0 -8 -4
-8 -9z"/>
<path d="M1715 596 c0 -30 2 -52 5 -50 7 8 8 104 1 104 -4 0 -7 -24 -6 -54z"/>
<path d="M530 519 c0 -5 5 -7 10 -4 6 3 10 8 10 11 0 2 -4 4 -10 4 -5 0 -10
-5 -10 -11z"/>
<path d="M1714 480 c0 -27 2 -50 5 -50 3 0 6 23 7 50 0 28 -2 50 -5 50 -3 0
-6 -22 -7 -50z"/>
<path d="M2306 471 c-4 -5 -2 -13 4 -16 8 -5 8 -11 0 -20 -7 -9 -8 -15 -1 -20
11 -6 10 -32 -2 -52 -4 -6 -3 -14 3 -18 6 -4 7 -12 4 -18 -4 -7 -3 -8 2 -4 12
11 13 79 1 95 -6 8 -6 12 2 12 6 0 10 9 8 20 -4 25 -13 34 -21 21z"/>
<path d="M772 408 c7 -15 15 -23 17 -17 2 6 -4 18 -13 27 -15 15 -15 15 -4
-10z"/>
<path d="M1713 385 c0 -19 3 -35 7 -35 3 0 6 16 6 35 0 19 -3 35 -6 35 -4 0
-7 -16 -7 -35z"/>
<path d="M360 395 c7 -9 15 -13 18 -11 2 3 12 1 22 -4 10 -5 21 -6 25 -2 3 4
15 7 26 7 10 0 19 3 19 8 0 6 -5 9 -12 6 -14 -6 -88 -4 -88 3 0 4 -5 8 -11 8
-8 0 -7 -5 1 -15z"/>
<path d="M2074 355 c0 -14 4 -25 8 -25 4 0 7 9 5 20 -5 29 -13 33 -13 5z"/>
<path d="M753 323 c0 -7 5 -13 11 -13 6 0 4 -5 -4 -10 -10 -7 -11 -10 -2 -10
8 0 11 -9 8 -25 -3 -13 -1 -27 4 -30 5 -3 7 4 5 16 -3 16 0 19 12 15 13 -5 14
-4 3 9 -7 8 -9 15 -5 15 4 0 2 7 -5 15 -6 8 -9 18 -6 23 3 5 -1 9 -8 9 -7 0
-13 -6 -13 -14z"/>
<path d="M2070 305 c-7 -9 -2 -11 18 -10 15 1 36 -5 47 -14 20 -16 20 -15 2 5
-9 11 -15 23 -12 25 2 3 -7 5 -21 5 -14 0 -29 -5 -34 -11z"/>
<path d="M586 302 c-3 -5 1 -9 9 -9 8 0 12 4 9 9 -3 4 -7 8 -9 8 -2 0 -6 -4
-9 -8z"/>
<path d="M1653 210 c-1 -11 2 -20 7 -20 4 0 7 7 6 15 -3 23 -12 26 -13 5z"/>
<path d="M1867 149 c7 -7 15 -10 18 -7 3 3 -2 9 -12 12 -14 6 -15 5 -6 -5z"/>
<path d="M1964 125 c8 -8 18 -15 22 -15 3 0 1 7 -6 15 -7 8 -17 15 -22 15 -5
0 -3 -7 6 -15z"/>
<path d="M2075 129 c-4 -6 -5 -12 -2 -15 2 -3 7 2 10 11 7 17 1 20 -8 4z"/>
</g>
</svg>
